<svg version="1.1" id="Layer_1" xmlns="http://www.w3.org/2000/svg" xmlns:xlink="http://www.w3.org/1999/xlink" x="0px" y="0px"
	 width="100%" viewBox="0 0 434 405" enable-background="new 0 0 434 405" xml:space="preserve">
<path fill="#F9F9F9" opacity="1.000000" stroke="none" 
	d="
M291.000000,406.000000 
	C194.000015,406.000000 97.500023,406.000000 1.000026,406.000000 
	C1.000017,271.000031 1.000017,136.000061 1.000009,1.000062 
	C145.666626,1.000041 290.333252,1.000041 434.999908,1.000021 
	C434.999939,135.999939 434.999939,270.999878 434.999969,405.999908 
	C387.166656,406.000000 339.333344,406.000000 291.000000,406.000000 
M361.999664,211.272049 
	C360.891388,199.221039 359.711639,187.175812 358.732727,175.114304 
	C358.527344,172.583374 358.484375,169.777054 359.348724,167.464767 
	C364.357880,154.063950 369.721802,140.796310 374.842133,127.436249 
	C377.959839,119.301376 374.263214,112.981438 365.740662,111.860451 
	C352.535248,110.123535 339.285095,108.707367 326.110748,106.768959 
	C323.243042,106.347023 320.085205,104.868637 317.958160,102.904999 
	C294.021301,80.807083 266.040009,67.877075 233.544189,64.728989 
	C212.142593,62.655678 191.427994,65.664223 171.295685,72.736374 
	C164.138657,62.736263 157.598953,59.918682 149.665970,64.393616 
	C146.105026,66.402313 142.178391,69.752312 140.931152,73.362099 
	C139.421463,77.731422 140.573151,83.020294 140.573151,88.596481 
	C114.224380,106.628654 94.581802,133.128632 85.001823,163.808273 
	C84.450325,165.574417 83.024628,167.230698 81.634560,168.545685 
	C71.839882,177.811264 61.940334,186.965881 52.090450,196.173264 
	C47.760250,200.221024 46.688831,204.754852 48.958797,209.145172 
	C51.563313,214.182556 56.136955,216.416382 61.894592,215.004761 
	C64.891380,214.270065 67.732391,212.883820 70.624496,211.743057 
	C73.226471,210.716721 75.802132,209.623703 78.252449,208.616394 
	C79.589493,218.237595 80.265701,227.200256 82.136261,235.906296 
	C95.372322,297.510101 149.551849,344.004791 211.204697,346.962982 
	C277.610779,350.149231 335.863464,310.667908 355.028656,248.737701 
	C358.668945,236.974365 359.740814,224.416199 361.999664,211.272049 
z"/>
<path fill="#5D2C2C" opacity="1.000000" stroke="none" 
	d="
M361.998688,211.748413 
	C359.740814,224.416199 358.668945,236.974365 355.028656,248.737701 
	C335.863464,310.667908 277.610779,350.149231 211.204697,346.962982 
	C149.551849,344.004791 95.372322,297.510101 82.136261,235.906296 
	C80.265701,227.200256 79.589493,218.237595 78.252449,208.616394 
	C75.802132,209.623703 73.226471,210.716721 70.624496,211.743057 
	C67.732391,212.883820 64.891380,214.270065 61.894592,215.004761 
	C56.136955,216.416382 51.563313,214.182556 48.958797,209.145172 
	C46.688831,204.754852 47.760250,200.221024 52.090450,196.173264 
	C61.940334,186.965881 71.839882,177.811264 81.634560,168.545685 
	C83.024628,167.230698 84.450325,165.574417 85.001823,163.808273 
	C94.581802,133.128632 114.224380,106.628654 140.573151,88.596481 
	C140.573151,83.020294 139.421463,77.731422 140.931152,73.362099 
	C142.178391,69.752312 146.105026,66.402313 149.665970,64.393616 
	C157.598953,59.918682 164.138657,62.736263 171.295685,72.736374 
	C191.427994,65.664223 212.142593,62.655678 233.544189,64.728989 
	C266.040009,67.877075 294.021301,80.807083 317.958160,102.904999 
	C320.085205,104.868637 323.243042,106.347023 326.110748,106.768959 
	C339.285095,108.707367 352.535248,110.123535 365.740662,111.860451 
	C374.263214,112.981438 377.959839,119.301376 374.842133,127.436249 
	C369.721802,140.796310 364.357880,154.063950 359.348724,167.464767 
	C358.484375,169.777054 358.527344,172.583374 358.732727,175.114304 
	C359.711639,187.175812 360.891388,199.221039 361.998688,211.748413 
M136.149719,156.833511 
	C126.405693,160.620575 116.718658,164.563568 106.901932,168.151703 
	C96.694344,171.882690 86.751907,175.856430 80.171432,185.238785 
	C79.439568,186.282272 78.083031,186.865875 77.117744,187.771027 
	C72.027061,192.544617 66.968948,197.352921 61.899536,202.149185 
	C63.981815,202.700348 65.517647,202.338928 66.973427,201.771957 
	C78.764252,197.179779 90.548622,192.570709 102.315063,187.916489 
	C105.703651,186.576126 109.828651,185.881195 112.236656,183.497131 
	C120.822716,174.996460 128.815094,165.896149 137.466431,156.948120 
	C137.445236,156.731796 137.424042,156.515488 137.402847,156.299164 
	C137.242157,156.504623 137.081482,156.710083 136.149719,156.833511 
M288.696625,234.887466 
	C282.364746,209.953491 276.049316,185.015335 269.691010,160.088104 
	C267.785797,152.618820 264.319214,150.383438 256.936554,152.136566 
	C213.289322,162.501297 169.652802,172.911438 126.028259,183.371170 
	C118.154945,185.258926 116.465347,188.483917 118.571831,196.568283 
	C121.044121,206.056458 123.538818,215.539337 125.922501,225.049911 
	C132.822021,252.577942 139.617233,280.132233 146.577316,307.644867 
	C148.298721,314.449493 151.959381,316.505157 158.920013,314.844543 
	C202.537628,304.438568 246.147598,294.000366 289.743591,283.504272 
	C297.805145,281.563354 299.609436,278.224854 297.540314,270.007385 
	C294.659546,258.566650 291.781647,247.125198 288.696625,234.887466 
M293.127075,122.631805 
	C287.353271,129.421295 281.579498,136.210785 275.564575,143.283798 
	C297.900421,156.775696 319.624481,169.898041 341.791809,183.288147 
	C349.741516,162.806854 357.474854,142.883072 365.343414,122.610909 
	C355.722931,121.334244 346.798706,120.125305 337.867401,118.971252 
	C327.659088,117.652184 317.417358,116.560020 307.244293,115.013115 
	C302.374176,114.272560 298.449829,114.753639 295.865631,119.451515 
	C295.317230,120.448502 294.358307,121.219666 293.127075,122.631805 
M213.405823,155.921692 
	C227.910431,152.263779 242.381012,148.461304 256.940186,145.035172 
	C261.364716,143.993973 264.747620,142.133926 267.651794,138.578217 
	C273.543060,131.365219 279.837769,124.482292 285.935455,117.436737 
	C286.709259,116.542679 287.298950,115.489304 288.441864,113.830635 
	C286.368500,114.102654 285.212799,114.123474 284.130096,114.415207 
	C243.690308,125.311531 203.256180,136.228806 162.828430,147.169724 
	C161.563522,147.512054 160.041458,147.810730 159.201248,148.675674 
	C150.682709,157.444839 142.281265,166.327728 133.097809,175.964951 
	C159.967285,169.238266 186.279419,162.651123 213.405823,155.921692 
M284.926331,187.610504 
	C291.440552,213.435532 297.954773,239.260559 304.468964,265.085602 
	C304.948669,265.177643 305.428345,265.269684 305.908020,265.361755 
	C306.656738,264.299774 307.570435,263.317627 308.128540,262.163483 
	C313.625763,250.795563 319.220795,239.470230 324.434662,227.972534 
	C326.285736,223.890533 328.710022,219.175659 328.195374,215.086655 
	C326.832184,204.256180 324.109314,193.586288 321.667572,182.911972 
	C321.233643,181.014938 319.949951,178.805099 318.379669,177.755539 
	C305.941864,169.442352 293.344940,161.366959 280.779846,153.244873 
	C279.492493,152.412720 278.093231,151.753571 275.367096,150.257462 
	C278.756622,163.466904 281.751190,175.137238 284.926331,187.610504 
M153.350403,87.151154 
	C161.536423,98.052574 169.652176,109.008507 178.008041,119.778160 
	C178.928207,120.964111 181.223907,121.082809 182.881622,121.696503 
	C182.899506,120.049057 183.464249,118.149017 182.840240,116.798058 
	C180.194611,111.070198 177.192596,105.507095 174.327087,99.880592 
	C170.181015,91.739738 166.149063,83.538155 161.851303,75.478256 
	C159.723495,71.487816 155.734787,70.698570 152.136337,73.106667 
	C148.452133,75.572151 147.723434,79.270874 150.240067,82.979256 
	C151.079300,84.215904 152.032455,85.375237 153.350403,87.151154 
M203.105698,105.754761 
	C204.366104,99.727455 205.874939,93.736069 206.754410,87.653687 
	C207.069183,85.476700 206.547714,82.381371 205.138580,81.000870 
	C203.978226,79.864098 200.269775,79.762451 198.914413,80.800301 
	C197.340179,82.005730 196.351273,84.976608 196.415085,87.142731 
	C196.660156,95.460579 197.404251,103.764832 198.026138,112.069359 
	C198.126572,113.410492 198.551682,114.727303 198.826691,116.055359 
	C199.469269,116.114326 200.111832,116.173286 200.754410,116.232254 
	C201.497284,113.016884 202.240173,109.801506 203.105698,105.754761 
M145.634018,129.778336 
	C150.045090,131.269852 154.419662,132.890045 158.893906,134.158829 
	C159.959976,134.461136 161.359055,133.589188 162.604965,133.257324 
	C161.944977,132.134384 161.561813,130.495804 160.581512,129.969528 
	C152.230774,125.486420 143.753830,121.239273 135.354233,116.845879 
	C132.333755,115.266022 129.795898,115.290047 128.476654,118.823616 
	C127.207062,122.224251 128.911346,124.085030 132.169434,125.104774 
	C136.453415,126.445618 140.664780,128.018448 145.634018,129.778336 
z"/>
<path fill="#FECB00" opacity="1.000000" stroke="none" 
	d="
M288.799591,235.285767 
	C291.781647,247.125198 294.659546,258.566650 297.540314,270.007385 
	C299.609436,278.224854 297.805145,281.563354 289.743591,283.504272 
	C246.147598,294.000366 202.537628,304.438568 158.920013,314.844543 
	C151.959381,316.505157 148.298721,314.449493 146.577316,307.644867 
	C139.617233,280.132233 132.822021,252.577942 125.922501,225.049911 
	C123.538818,215.539337 121.044121,206.056458 118.571831,196.568283 
	C116.465347,188.483917 118.154945,185.258926 126.028259,183.371170 
	C169.652802,172.911438 213.289322,162.501297 256.936554,152.136566 
	C264.319214,150.383438 267.785797,152.618820 269.691010,160.088104 
	C276.049316,185.015335 282.364746,209.953491 288.799591,235.285767 
M168.123825,220.623718 
	C167.440750,229.532242 166.698334,238.436737 166.094208,247.350616 
	C165.646347,253.959122 165.269287,260.576660 165.076080,267.196442 
	C164.979797,270.495422 166.460526,273.393188 170.015930,273.549866 
	C173.424973,273.700073 175.969833,271.677826 176.734543,268.075928 
	C176.938950,267.113190 176.907043,266.097198 176.952835,265.104279 
	C177.326889,256.992737 177.564835,248.872208 178.108841,240.772186 
	C178.459671,235.548340 179.256195,230.354416 180.258942,225.696915 
	C187.027756,237.359604 193.741455,249.055161 200.645416,260.637299 
	C201.385742,261.879272 203.459152,263.430634 204.529785,263.182159 
	C209.367935,262.059265 214.082062,260.381439 218.784576,258.742096 
	C219.088943,258.636017 218.920822,257.173981 218.972153,256.342682 
	C219.372437,249.860870 219.729858,243.376038 220.186508,236.898209 
	C220.547028,231.783936 221.029572,226.678268 221.558533,220.368546 
	C226.545807,229.418991 230.833633,237.296783 235.212952,245.123398 
	C240.927505,255.336273 240.929062,255.157608 252.386368,253.050674 
	C256.045013,252.377869 257.354279,250.720581 257.635162,247.212204 
	C258.618317,234.932678 259.955231,222.680267 260.836548,210.394501 
	C261.121948,206.415726 261.731506,203.653076 266.126923,202.058197 
	C267.853333,201.431778 269.351715,197.690643 269.342102,195.374634 
	C269.329163,192.247314 266.653442,190.465149 263.341309,190.830994 
	C260.540192,191.140381 257.765320,191.760788 255.007156,192.371445 
	C247.580505,194.015701 246.376373,195.583267 246.111160,203.232086 
	C245.711349,214.762695 245.238708,226.290787 244.758713,238.819733 
	C238.595230,227.402344 232.934708,216.892761 227.251022,206.395737 
	C222.822678,198.217178 224.922028,199.608749 216.020676,201.071426 
	C212.009995,201.730453 210.361633,203.442383 210.668381,207.627380 
	C210.909302,210.914185 210.257736,214.261307 210.071320,217.585510 
	C209.538193,227.092133 209.040039,236.600739 208.461258,247.351166 
	C203.184326,237.055252 198.497498,227.903656 193.804276,218.755341 
	C187.913086,207.271912 187.910828,207.273087 175.063416,209.981644 
	C168.589844,211.346436 167.467163,212.965042 168.123825,220.623718 
M158.079529,274.394836 
	C159.789078,270.626801 158.943542,266.995667 155.193604,265.906891 
	C152.867996,265.231659 148.946381,266.459412 147.193451,268.252625 
	C144.600037,270.905609 146.592285,274.222168 148.975372,276.433472 
	C152.265167,279.486084 154.963013,276.999512 158.079529,274.394836 
z"/>
<path fill="#FECC03" opacity="1.000000" stroke="none" 
	d="
M293.357788,122.363335 
	C294.358307,121.219666 295.317230,120.448502 295.865631,119.451515 
	C298.449829,114.753639 302.374176,114.272560 307.244293,115.013115 
	C317.417358,116.560020 327.659088,117.652184 337.867401,118.971252 
	C346.798706,120.125305 355.722931,121.334244 365.343414,122.610909 
	C357.474854,142.883072 349.741516,162.806854 341.791809,183.288147 
	C319.624481,169.898041 297.900421,156.775696 275.564575,143.283798 
	C281.579498,136.210785 287.353271,129.421295 293.357788,122.363335 
z"/>
<path fill="#FCFBFB" opacity="1.000000" stroke="none" 
	d="
M212.998688,155.992828 
	C186.279419,162.651123 159.967285,169.238266 133.097809,175.964951 
	C142.281265,166.327728 150.682709,157.444839 159.201248,148.675674 
	C160.041458,147.810730 161.563522,147.512054 162.828430,147.169724 
	C203.256180,136.228806 243.690308,125.311531 284.130096,114.415207 
	C285.212799,114.123474 286.368500,114.102654 288.441864,113.830635 
	C287.298950,115.489304 286.709259,116.542679 285.935455,117.436737 
	C279.837769,124.482292 273.543060,131.365219 267.651794,138.578217 
	C264.747620,142.133926 261.364716,143.993973 256.940186,145.035172 
	C242.381012,148.461304 227.910431,152.263779 212.998688,155.992828 
z"/>
<path fill="#BC7301" opacity="1.000000" stroke="none" 
	d="
M284.836029,187.209030 
	C281.751190,175.137238 278.756622,163.466904 275.367096,150.257462 
	C278.093231,151.753571 279.492493,152.412720 280.779846,153.244873 
	C293.344940,161.366959 305.941864,169.442352 318.379669,177.755539 
	C319.949951,178.805099 321.233643,181.014938 321.667572,182.911972 
	C324.109314,193.586288 326.832184,204.256180 328.195374,215.086655 
	C328.710022,219.175659 326.285736,223.890533 324.434662,227.972534 
	C319.220795,239.470230 313.625763,250.795563 308.128540,262.163483 
	C307.570435,263.317627 306.656738,264.299774 305.908020,265.361755 
	C305.428345,265.269684 304.948669,265.177643 304.468964,265.085602 
	C297.954773,239.260559 291.440552,213.435532 284.836029,187.209030 
z"/>
<path fill="#FBC807" opacity="1.000000" stroke="none" 
	d="
M137.032181,157.022797 
	C128.815094,165.896149 120.822716,174.996460 112.236656,183.497131 
	C109.828651,185.881195 105.703651,186.576126 102.315063,187.916489 
	C90.548622,192.570709 78.764252,197.179779 66.973427,201.771957 
	C65.517647,202.338928 63.981815,202.700348 61.899536,202.149185 
	C66.968948,197.352921 72.027061,192.544617 77.117744,187.771027 
	C78.083031,186.865875 79.439568,186.282272 80.171432,185.238785 
	C86.751907,175.856430 96.694344,171.882690 106.901932,168.151703 
	C116.718658,164.563568 126.405693,160.620575 136.562515,156.901947 
	C136.975311,156.970398 137.032181,157.022797 137.032181,157.022797 
z"/>
<path fill="#FAF7F6" opacity="1.000000" stroke="none" 
	d="
M153.141968,86.860535 
	C152.032455,85.375237 151.079300,84.215904 150.240067,82.979256 
	C147.723434,79.270874 148.452133,75.572151 152.136337,73.106667 
	C155.734787,70.698570 159.723495,71.487816 161.851303,75.478256 
	C166.149063,83.538155 170.181015,91.739738 174.327087,99.880592 
	C177.192596,105.507095 180.194611,111.070198 182.840240,116.798058 
	C183.464249,118.149017 182.899506,120.049057 182.881622,121.696503 
	C181.223907,121.082809 178.928207,120.964111 178.008041,119.778160 
	C169.652176,109.008507 161.536423,98.052574 153.141968,86.860535 
z"/>
<path fill="#F8F4F3" opacity="1.000000" stroke="none" 
	d="
M203.044373,106.170448 
	C202.240173,109.801506 201.497284,113.016884 200.754410,116.232254 
	C200.111832,116.173286 199.469269,116.114326 198.826691,116.055359 
	C198.551682,114.727303 198.126572,113.410492 198.026138,112.069359 
	C197.404251,103.764832 196.660156,95.460579 196.415085,87.142731 
	C196.351273,84.976608 197.340179,82.005730 198.914413,80.800301 
	C200.269775,79.762451 203.978226,79.864098 205.138580,81.000870 
	C206.547714,82.381371 207.069183,85.476700 206.754410,87.653687 
	C205.874939,93.736069 204.366104,99.727455 203.044373,106.170448 
z"/>
<path fill="#F7F2F2" opacity="1.000000" stroke="none" 
	d="
M145.270691,129.634933 
	C140.664780,128.018448 136.453415,126.445618 132.169434,125.104774 
	C128.911346,124.085030 127.207062,122.224251 128.476654,118.823616 
	C129.795898,115.290047 132.333755,115.266022 135.354233,116.845879 
	C143.753830,121.239273 152.230774,125.486420 160.581512,129.969528 
	C161.561813,130.495804 161.944977,132.134384 162.604965,133.257324 
	C161.359055,133.589188 159.959976,134.461136 158.893906,134.158829 
	C154.419662,132.890045 150.045090,131.269852 145.270691,129.634933 
z"/>
<path fill="#FBC807" opacity="1.000000" stroke="none" 
	d="
M136.948059,156.942963 
	C137.081482,156.710083 137.242157,156.504623 137.402847,156.299164 
	C137.424042,156.515488 137.445236,156.731796 137.249298,156.985458 
	C137.032181,157.022797 136.975311,156.970398 136.948059,156.942963 
z"/>
<path fill="#64312E" opacity="1.000000" stroke="none" 
	d="
M168.333099,219.684937 
	C167.467163,212.965042 168.589844,211.346436 175.063416,209.981644 
	C187.910828,207.273087 187.913086,207.271912 193.804276,218.755341 
	C198.497498,227.903656 203.184326,237.055252 208.461258,247.351166 
	C209.040039,236.600739 209.538193,227.092133 210.071320,217.585510 
	C210.257736,214.261307 210.909302,210.914185 210.668381,207.627380 
	C210.361633,203.442383 212.009995,201.730453 216.020676,201.071426 
	C224.922028,199.608749 222.822678,198.217178 227.251022,206.395737 
	C232.934708,216.892761 238.595230,227.402344 244.758713,238.819733 
	C245.238708,226.290787 245.711349,214.762695 246.111160,203.232086 
	C246.376373,195.583267 247.580505,194.015701 255.007156,192.371445 
	C257.765320,191.760788 260.540192,191.140381 263.341309,190.830994 
	C266.653442,190.465149 269.329163,192.247314 269.342102,195.374634 
	C269.351715,197.690643 267.853333,201.431778 266.126923,202.058197 
	C261.731506,203.653076 261.121948,206.415726 260.836548,210.394501 
	C259.955231,222.680267 258.618317,234.932678 257.635162,247.212204 
	C257.354279,250.720581 256.045013,252.377869 252.386368,253.050674 
	C240.929062,255.157608 240.927505,255.336273 235.212952,245.123398 
	C230.833633,237.296783 226.545807,229.418991 221.558533,220.368546 
	C221.029572,226.678268 220.547028,231.783936 220.186508,236.898209 
	C219.729858,243.376038 219.372437,249.860870 218.972153,256.342682 
	C218.920822,257.173981 219.088943,258.636017 218.784576,258.742096 
	C214.082062,260.381439 209.367935,262.059265 204.529785,263.182159 
	C203.459152,263.430634 201.385742,261.879272 200.645416,260.637299 
	C193.741455,249.055161 187.027756,237.359604 179.947754,225.046005 
	C178.339783,223.871719 177.037231,223.362137 175.747452,222.822021 
	C173.272171,221.785461 170.804138,220.731613 168.333099,219.684937 
z"/>
<path fill="#CC9300" opacity="1.000000" stroke="none" 
	d="
M168.228455,220.154327 
	C170.804138,220.731613 173.272171,221.785461 175.747452,222.822021 
	C177.037231,223.362137 178.339783,223.871719 179.744781,224.771088 
	C179.256195,230.354416 178.459671,235.548340 178.108841,240.772186 
	C177.564835,248.872208 177.326889,256.992737 176.952835,265.104279 
	C176.907043,266.097198 176.938950,267.113190 176.734543,268.075928 
	C175.969833,271.677826 173.424973,273.700073 170.015930,273.549866 
	C166.460526,273.393188 164.979797,270.495422 165.076080,267.196442 
	C165.269287,260.576660 165.646347,253.959122 166.094208,247.350616 
	C166.698334,238.436737 167.440750,229.532242 168.228455,220.154327 
z"/>
<path fill="#CC9400" opacity="1.000000" stroke="none" 
	d="
M157.830719,274.685272 
	C154.963013,276.999512 152.265167,279.486084 148.975372,276.433472 
	C146.592285,274.222168 144.600037,270.905609 147.193451,268.252625 
	C148.946381,266.459412 152.867996,265.231659 155.193604,265.906891 
	C158.943542,266.995667 159.789078,270.626801 157.830719,274.685272 
z"/>
</svg>